<svg xmlns="http://www.w3.org/2000/svg" viewBox="0 0 237.161 183.358">
  <path id="lastOne" d="M91.944,149.192a27.781,27.781,0,0,1,15.668-14.284,35.768,35.768,0,0,1,21.665-.378s6.853-7.378,11.9-10.964a44.315,44.315,0,0,1,22.132-6.011c14.342.239,27.256,12.083,29.491,15.866,5.131,8.685,5.856,15.293,5.856,15.293s13.575-1.14,20.3,11.609-1.1,22.173-1.1,22.173-.477,3.524-9.058,8.3c-3.7,2.061-15.643,1.814-17.331,1.9Z" transform="matrix(1, 0.017, -0.017, 1, 15.738, -119.137)" fill="#65aafc"/>
  <path id="shadowCloud" d="M178.226,163.571,223.461,182.1l46.527-15.078s8.334-.276,10.488-.922.33-16.825-17.464-23.286-34.56,1.437-34.56,1.437-8.128-9.375-15.978-15.19c-8.766-5.686-21.15-10.479-32.973-10.273C157.194,119.171,178.226,163.571,178.226,163.571Z" transform="translate(-72.283 -88.804)" fill="#2e84ff"/>
  <path id="lighterShadow" d="M132.013,239.065s88.382-104.407,80.531-110.223c-8.766-5.686-20.852-11.491-32.675-11.285-22.308.388-42.586,22.044-46.062,28.179-7.981,14.087-7.542,22.022-7.542,22.022s-22.15-1.868-32.617,18.81S94.826,222.5,94.826,222.5s2.224,5.945,15.57,13.7c5.752,3.342,7.58,3.076,10.205,3.21C123.1,239.553,132.013,239.065,132.013,239.065Z" transform="translate(-89.283 -87.804)" fill="#6bd9fc"/>
  <path id="bigOne" d="M125.386,239.4H248.243s30.919-2.747,42.37-29.247a50.6,50.6,0,0,0-3.108-47.184s-6.237-12.72-24.03-19.182-36.977-.846-36.977-.846a76.651,76.651,0,0,0-13.953-14.1c-8.766-5.686-20.852-11.491-32.675-11.285-22.308.388-42.586,22.044-46.062,28.179-7.981,14.087-7.542,22.022-7.542,22.022s-22.15-1.868-32.617,18.81S94.826,222.5,94.826,222.5s2.224,5.945,15.57,13.7c5.752,3.342,7.58,3.076,10.205,3.21A43.647,43.647,0,0,0,125.386,239.4Z" transform="translate(-80.283 -87.804)" fill="#aae8ff"/>
  <path id="firstShadow" d="M139.243,210s51.009-85.4,37.735-89.325c-5.883-4.073-9.678-4.055-18.538-3.9-16.717.294-31.711,15.641-34.316,20.3-5.981,10.687-7.353,18.727-7.353,18.727s-16.864-1.765-24.707,13.922-.169,27.383-.169,27.383,1.541,4.187,11.542,10.07A18.511,18.511,0,0,0,112.751,210C114.626,210.108,139.243,210,139.243,210Z" transform="translate(-16.283 -26.688)" fill="#65aafc"/>
  <path id="firstOne" d="M116.337,210H208.4s23.169-2.084,31.751-22.189a38.782,38.782,0,0,0-2.329-35.8s-4.674-9.65-18.008-14.552-27.943-.49-27.943-.49a61.3,61.3,0,0,0-10.589-10.687c-6.569-4.314-15.259-8.882-24.119-8.726-16.717.294-30.632,15.641-33.237,20.3-5.981,10.687-6.961,18.236-6.961,18.236s-16.57-1.863-24.413,13.824.882,27.256.882,27.256,1.667,4.51,11.667,10.393c4.31,2.535,5.68,2.334,7.647,2.435A32.313,32.313,0,0,0,116.337,210Z" transform="translate(-6.283 -26.688)" fill="#6bd9fc"/>
</svg>
