<svg xmlns="http://www.w3.org/2000/svg" viewBox="0 0 594.119 331.682"><g transform="translate(-6.461 -7.15)"><path d="M714.43,604.634h0s3.222-8.448,4.459-10.324,2.545-4.928,9.106-10.205,9.849-7.878,18.171-10.7,13.678-2.6,13.678-2.6,14.041.553,19.476,2.6a54.132,54.132,0,0,1,8.244,3.759,50.1,50.1,0,0,1,10.026,6.94,76.335,76.335,0,0,1,9.142,10.409,81.19,81.19,0,0,1,5.013,10.12,36.358,36.358,0,0,1,2.359,10.988c.248,3,0,8.1,0,8.1l3.834,2.024s5.308,3.759,7.667,8.674a26.264,26.264,0,0,1,2.359,10.12s1.769,12.144-7.667,20.241-13.565,7.229-13.565,7.229H692.018s-10.911.578-23.3-13.3-5.6-34.987-5.6-34.987,5.308-14.313,17.988-19.084c5.376-2.023,7.446-3.47,15.629-3.47S714.43,604.634,714.43,604.634Z" transform="translate(-640.81 -563.651)" fill="#52545e" opacity="0.2"/><path d="M714.43,604.634h0s3.222-8.448,4.459-10.324,2.545-4.928,9.106-10.205,9.849-7.878,18.171-10.7,13.678-2.6,13.678-2.6,14.041.553,19.476,2.6a54.132,54.132,0,0,1,8.244,3.759,50.1,50.1,0,0,1,10.026,6.94,76.335,76.335,0,0,1,9.142,10.409,81.19,81.19,0,0,1,5.013,10.12,36.358,36.358,0,0,1,2.359,10.988c.248,3,0,8.1,0,8.1l3.834,2.024s5.308,3.759,7.667,8.674a26.264,26.264,0,0,1,2.359,10.12s1.769,12.144-7.667,20.241-13.565,7.229-13.565,7.229H692.018s-10.911.578-23.3-13.3-5.6-34.987-5.6-34.987,5.308-14.313,17.988-19.084c5.376-2.023,7.446-3.47,15.629-3.47S714.43,604.634,714.43,604.634Z" transform="translate(-227.516 -550.651)" fill="#52545e" opacity="0.3"/><path d="M726.314,613.019h0s3.942-10.542,5.456-12.883,3.114-6.15,11.142-12.734,12.05-9.831,22.232-13.35,16.735-3.247,16.735-3.247,17.18.69,23.829,3.247a65.65,65.65,0,0,1,10.087,4.691,61.237,61.237,0,0,1,12.268,8.659,94.758,94.758,0,0,1,11.185,12.989,102.108,102.108,0,0,1,6.134,12.628,46.152,46.152,0,0,1,2.887,13.711c.3,3.746,0,10.1,0,10.1l4.691,2.526s6.495,4.691,9.381,10.824a33.333,33.333,0,0,1,2.886,12.628s2.165,15.154-9.381,25.257-16.6,9.02-16.6,9.02H698.892s-13.35.722-28.5-16.6-6.855-43.658-6.855-43.658,6.495-17.86,22.01-23.814c6.578-2.524,9.111-4.33,19.123-4.33S726.314,613.019,726.314,613.019Z" transform="translate(-654.81 -389.285)" fill="#52545e" opacity="0.3"/><path d="M699.875,596.089h0a79.961,79.961,0,0,1,3.238-7.717,24.37,24.37,0,0,1,6.613-7.628c4.765-3.944,7.152-5.889,13.2-8a29.611,29.611,0,0,1,9.933-1.945s10.2.413,14.144,1.945a38.815,38.815,0,0,1,5.987,2.81,36.337,36.337,0,0,1,7.281,5.187,56.638,56.638,0,0,1,6.639,7.78,61.4,61.4,0,0,1,3.641,7.564,27.861,27.861,0,0,1,1.713,8.213c.18,2.244,0,6.052,0,6.052l2.784,1.513a19.9,19.9,0,0,1,5.568,6.484,20.125,20.125,0,0,1,1.713,7.564s1.285,9.077-5.568,15.129-9.851,5.4-9.851,5.4H683.6s-7.924.432-16.919-9.942-4.069-26.151-4.069-26.151,3.855-10.7,13.064-14.264c3.9-1.512,5.408-2.594,11.351-2.594S699.875,596.089,699.875,596.089Z" transform="translate(-250.516 -307.629)" fill="#52545e" opacity="0.2"/></g></svg>