<svg xmlns="http://www.w3.org/2000/svg"  viewBox="0 0 167.77 102.997">
  <path id="Path_1" data-name="Path 1" d="M95.779,98.648a35.743,35.743,0,0,1,9.243-18.008,84.516,84.516,0,0,1,9.721-8.606,35.033,35.033,0,0,1,10.837-5.9c11.036-4.024,24.7-2.709,24.7-2.709s13.825,2.032,23.427,8.606,15.3,17.371,15.3,17.371,4.94,8.606,6.056,17.371,0,10.2,0,10.2a28.561,28.561,0,0,1,6.693,4.3,19.122,19.122,0,0,1,4.622,6.056c3.506,5.976,3.347,13.546,3.347,13.546a24.576,24.576,0,0,1-3.347,12.271c-3.506,5.5-4.622,6.614-9.721,9.881a21.382,21.382,0,0,1-10.678,3.187H71.4a38.273,38.273,0,0,1-9.881-4.144,51.6,51.6,0,0,1-10.837-8.925s-5.02-5.817-7.172-12.271a37.054,37.054,0,0,1-1.434-13.546,30.812,30.812,0,0,1,1.434-10.359c1.713-4.781,3.43-5.874,5.418-8.765,5.179-7.53,13.865-11,13.865-11S72.034,93.628,80,93.867,95.779,98.648,95.779,98.648Z" transform="translate(-41.958 -63.223)" fill="#fff"/>
</svg>
