<svg xmlns="http://www.w3.org/2000/svg" viewBox="0 0 241.19 241">
  <ellipse id="center" cx="91" cy="91.5" rx="91" ry="91.5" transform="translate(29 28)" fill="#ffec65"/>
  <g id="outer" transform="translate(15 15)" fill="none" stroke="rgba(255,248,107,0.75)" stroke-width="6">
    <ellipse cx="105.5" cy="105" rx="105.5" ry="105" stroke="none"/>
    <ellipse cx="105.5" cy="105" rx="102.5" ry="102" fill="none"/>
  </g>
  <g id="outer-2" data-name="outer" fill="none" stroke="rgba(255,248,107,0.23)" stroke-width="4">
    <circle cx="120.5" cy="120.5" r="120.5" stroke="none"/>
    <circle cx="120.5" cy="120.5" r="118.5" fill="none"/>
  </g>
  <path id="cloud" d="M105.767,105.709a16.66,16.66,0,0,1,6.375-9.317c5.149-3.555,6.191-4.107,12.5-4.658s13.117,3.31,13.117,3.31,5.762,3.984,8.459,8.949,1.1,11.033,1.1,11.033,3.524-.031,5.149,2.452a12.861,12.861,0,0,1,1.716,6.62c0,2.85-.021,3.412-.858,5.394-1.747,4.137-7.846,4.536-7.846,4.536H94s-5.762-1.624-8.949-6.252a16.138,16.138,0,0,1-2.574-8.826,17.524,17.524,0,0,1,1.226-5.884,18.2,18.2,0,0,1,7.968-7.355C97.063,103.288,105.767,105.709,105.767,105.709Z" transform="translate(-64 -64)" fill="#fff"/>
  <path id="cloud-2" data-name="cloud" d="M105.767,105.709a16.66,16.66,0,0,1,6.375-9.317c5.149-3.555,6.191-4.107,12.5-4.658s13.117,3.31,13.117,3.31,5.762,3.984,8.459,8.949,1.1,11.033,1.1,11.033,3.524-.031,5.149,2.452a12.861,12.861,0,0,1,1.716,6.62c0,2.85-.021,3.412-.858,5.394-1.747,4.137-7.846,4.536-7.846,4.536H94s-5.762-1.624-8.949-6.252a16.138,16.138,0,0,1-2.574-8.826,17.524,17.524,0,0,1,1.226-5.884,18.2,18.2,0,0,1,7.968-7.355C97.063,103.288,105.767,105.709,105.767,105.709Z" transform="translate(87 -43)" fill="#fff"/>
  <path id="cloud-3" data-name="cloud" d="M105.767,105.709a16.66,16.66,0,0,1,6.375-9.317c5.149-3.555,6.191-4.107,12.5-4.658s13.117,3.31,13.117,3.31,5.762,3.984,8.459,8.949,1.1,11.033,1.1,11.033,3.524-.031,5.149,2.452a12.861,12.861,0,0,1,1.716,6.62c0,2.85-.021,3.412-.858,5.394-1.747,4.137-7.846,4.536-7.846,4.536H94s-5.762-1.624-8.949-6.252a16.138,16.138,0,0,1-2.574-8.826,17.524,17.524,0,0,1,1.226-5.884,18.2,18.2,0,0,1,7.968-7.355C97.063,103.288,105.767,105.709,105.767,105.709Z" transform="translate(-64 65)" fill="#fff"/>
</svg>
