<svg xmlns="http://www.w3.org/2000/svg" viewBox="0 0 298.594 368.666">
  <g id="XMLID_2_" transform="translate(-35.036)">
    <g id="Group_2" data-name="Group 2">
      <g id="Group_1" data-name="Group 1">
        <path id="Path_1" data-name="Path 1" d="M184.333,0c-82.323,0-149.3,66.974-149.3,149.3a147.438,147.438,0,0,0,32.193,92.515C94.5,276.2,173.8,357.833,177.163,361.291l7.169,7.375,7.17-7.374c3.364-3.46,82.69-85.116,109.964-119.51A147.392,147.392,0,0,0,333.63,149.3C333.63,66.974,266.656,0,184.333,0Zm60.789,139.914c4.709,66.714-67.959,62.789-67.959,62.789L132.1,176.018l-7.064-44.737,32.18-48.662s9.169-13.343,41.6,0c.94.387-22.807-.42-21.652,0C207.192,93.553,240.55,75.135,245.122,139.914Z" fill="#88869d"/>
        <path id="Path_2" data-name="Path 2" d="M163.754,59.265a67.795,67.795,0,1,0,67.795,67.795A67.871,67.871,0,0,0,163.754,59.265Zm0,120.247a52.452,52.452,0,1,1,52.452-52.452A52.512,52.512,0,0,1,163.754,179.512Z" transform="translate(20 11)" fill="#88869d"/>
      </g>
    </g>
  </g>
</svg>
