<svg xmlns="http://www.w3.org/2000/svg" viewBox="0 0 224 203.117">
  <path id="Path_1" data-name="Path 1" d="M13,160H222V145H13Z" transform="translate(-13 -6.883)" fill="#d1e5f5"/>
  <path id="Path_2" data-name="Path 2" d="M13,160H222V145H13Z" transform="translate(2 18.117)" fill="#d1e5f5"/>
  <path id="Path_3" data-name="Path 3" d="M13,160H222V145H13Z" transform="translate(-13 43.117)" fill="#d1e5f5"/>
  <path id="Path_6" data-name="Path 6" d="M182.01,6.883v96.358s46.9-1.275,47.159-48.052S182.01,6.883,182.01,6.883Z" transform="translate(-13 -6.883)" fill="#f5dc60"/>
  <path id="Path_7" data-name="Path 7" d="M229.171,6.883v96.358s-46.9-1.275-47.159-48.052S229.171,6.883,229.171,6.883Z" transform="translate(-60 -6.883)" fill="#f8e99b"/>
  <path id="Path_4" data-name="Path 4" d="M18.236,134.909h98.143V37.159S92.662,35.051,70.2,56.474s-19.609,46.865-19.609,46.865-12.609-2.392-23.04,9.216S18.236,134.909,18.236,134.909Z" transform="translate(-13 -6.883)" fill="#e8f4fc"/>
  <path id="Path_5" data-name="Path 5" d="M116.344,134.909H18.2V37.159S41.918,35.051,64.38,56.474s19.609,46.865,19.609,46.865,12.609-2.392,23.04,9.216S116.344,134.909,116.344,134.909Z" transform="translate(85 -6.883)" fill="#d1e5f5"/>
</svg>
