<svg xmlns="http://www.w3.org/2000/svg" viewBox="0 0 179.728 208.192">
  <g id="Clear" transform="translate(-10 -10)">
    <ellipse id="center" cx="31" cy="31.5" rx="31" ry="31.5" transform="translate(29 28)" fill="#ffec65"/>
    <g id="outer" transform="translate(19 19)" fill="none" stroke="rgba(255,248,107,0.48)" stroke-width="5">
      <ellipse cx="41" cy="40.539" rx="41" ry="40.539" stroke="none"/>
      <ellipse cx="41" cy="40.539" rx="38.5" ry="38.039" fill="none"/>
    </g>
    <g id="outer-2" data-name="outer" transform="translate(10 10)" fill="none" stroke="rgba(255,248,107,0.14)" stroke-width="4">
      <circle cx="50" cy="50" r="50" stroke="none"/>
      <circle cx="50" cy="50" r="48" fill="none"/>
    </g>
  </g>
  <path id="cloud" d="M95.779,98.648a35.743,35.743,0,0,1,9.243-18.008,84.516,84.516,0,0,1,9.721-8.606,35.033,35.033,0,0,1,10.837-5.9c11.036-4.024,24.7-2.709,24.7-2.709s13.825,2.032,23.427,8.606,15.3,17.371,15.3,17.371,4.94,8.606,6.056,17.371,0,10.2,0,10.2a28.561,28.561,0,0,1,6.693,4.3,19.122,19.122,0,0,1,4.622,6.056c3.506,5.976,3.347,13.546,3.347,13.546a24.576,24.576,0,0,1-3.347,12.271c-3.506,5.5-4.622,6.614-9.721,9.881a21.382,21.382,0,0,1-10.678,3.187H71.4a38.273,38.273,0,0,1-9.881-4.144,51.6,51.6,0,0,1-10.837-8.925s-5.02-5.817-7.172-12.271a37.054,37.054,0,0,1-1.434-13.546,30.812,30.812,0,0,1,1.434-10.359c1.713-4.781,3.43-5.874,5.418-8.765,5.179-7.53,13.865-11,13.865-11S72.034,93.628,80,93.867,95.779,98.648,95.779,98.648Z" transform="translate(-30 -43)" fill="#fff"/>
  <path id="rain" d="M90.349,135.462c-1.1,2.452-4.658,16.672-7.355,25.866s-.858,10.42.736,10.788,3.187-2.575,3.8-3.923c.521-1.146,5.814-20.776,7.846-28.809.269-1.063.521-2.256.613-2.7.613-2.942-.644-3.678-2.207-3.923S91.452,133.01,90.349,135.462Z" transform="translate(-29 -2)" fill="#ade8ff"/>
  <path id="rain-2" data-name="rain" d="M90.349,136.789c-.764,3.523-4.658,24.708-7.355,38.334s.3,13.623,1.205,13.776,2.7-1.847,3.31-3.845c.521-1.7,5.834-30.546,7.866-42.451.269-1.575.521-3.343.613-4,.613-4.36-.228-5.364-1.791-5.727S91.113,133.266,90.349,136.789Z" transform="matrix(0.996, 0.087, -0.087, 0.996, -1.656, -9.147)" fill="#ade8ff"/>
  <path id="rain-3" data-name="rain" d="M90.349,138.245c-1.1,4.93-4.658,33.527-7.355,52.016s.056,19.037,1,19.316,2.918-2.236,3.531-4.948c.521-2.3,5.822-42.342,7.854-58.5.269-2.138.521-4.536.613-5.423.613-5.916.168-7.257-1.6-7.475S91.452,133.315,90.349,138.245Z" transform="translate(22.79 -12.762) rotate(8)" fill="#ade8ff"/>
  <path id="rain-4" data-name="rain" d="M90.349,136.789c-.764,3.523-6.2,32.637-7.355,38.334s-.658,12.161.691,12.706,3.014-.958,3.955-3.516,5.7-29.806,7.736-41.71c.269-1.575.521-3.343.613-4,.613-4.36-.228-5.364-1.791-5.727S91.113,133.266,90.349,136.789Z" transform="matrix(0.996, 0.087, -0.087, 0.996, 45.344, -9.147)" fill="#ade8ff"/>
  <path id="rain-5" data-name="rain" d="M90.349,135.462c-1.1,2.452-3.687,15.264-6.384,24.458s-1.339,11.829,0,12.22,3.126-2.5,3.739-3.85c.521-1.146,5.64-20.872,7.672-28.9.269-1.063.521-2.256.613-2.7.613-2.942-.644-3.678-2.207-3.923S91.452,133.01,90.349,135.462Z" transform="translate(19 -2)" fill="#ade8ff"/>
  <path id="rain-6" data-name="rain" d="M88.942,134.319c-.853,1.448-5.461,14.8-6.044,16.919s-.153,3.731.822,4,1.938-.925,2.411-1.722c.4-.677,6.032-17.772,6.1-18.033.474-1.738-.259-2.747-1.154-2.738S89.794,132.871,88.942,134.319Z" transform="translate(44.35 3.081) rotate(-3)" fill="#ade8ff"/>
</svg>
