<svg xmlns="http://www.w3.org/2000/svg" viewBox="0 0 167.77 125.446">
  <path id="cloud" d="M95.779,98.648a35.743,35.743,0,0,1,9.243-18.008,84.516,84.516,0,0,1,9.721-8.606,35.033,35.033,0,0,1,10.837-5.9c11.036-4.024,24.7-2.709,24.7-2.709s13.825,2.032,23.427,8.606,15.3,17.371,15.3,17.371,4.94,8.606,6.056,17.371,0,10.2,0,10.2a28.561,28.561,0,0,1,6.693,4.3,19.122,19.122,0,0,1,4.622,6.056c3.506,5.976,3.347,13.546,3.347,13.546a24.576,24.576,0,0,1-3.347,12.271c-3.506,5.5-4.622,6.614-9.721,9.881a21.382,21.382,0,0,1-10.678,3.187l-22.844.09a5.581,5.581,0,0,0-1.458-3.556,10.445,10.445,0,0,0-4.124-2.611s2.01-5.226-2.268-7.408-7.722,1.591-7.722,1.591l-7.578-4.517,7.92-4.4a7.019,7.019,0,0,0,7.753.632,5.082,5.082,0,0,0,2.24-6.576s9.3-3.3,4.853-10.165-10.912-.574-10.912-.574-3.388-3.159-7.035-1.062-3.105,6.852-3.105,6.852l-7.862,4.692V130.1s5.511-1.117,4.793-6.085a5.95,5.95,0,0,0-5.226-5.312s1.78-8.787-5.513-8.815-5.8,8.815-5.8,8.815a5.414,5.414,0,0,0-4.853,5.312,5.8,5.8,0,0,0,4.328,6.085v9.105l-7.486-4.262a5.889,5.889,0,0,0-2.816-7.08,5.211,5.211,0,0,0-7.064,1.723s-6.03-6.174-10.424.172,4.365,9.447,4.365,9.447c-.34.485-1.493,4.164,2.326,6.518a6.214,6.214,0,0,0,7.064-.316l7.836,4.6-7.357,3.954s-4.847-3.313-8.337,0-1.8,6.373-1.8,6.373-3.213.447-4.465,1.844a7.363,7.363,0,0,0-1.31,4.041H71.4a38.273,38.273,0,0,1-9.881-4.144,51.6,51.6,0,0,1-10.837-8.925s-5.02-5.817-7.172-12.271a37.054,37.054,0,0,1-1.434-13.546,30.812,30.812,0,0,1,1.434-10.359c1.713-4.781,3.43-5.874,5.418-8.765,5.179-7.53,13.865-11,13.865-11S72.034,93.628,80,93.867,95.779,98.648,95.779,98.648Z" transform="translate(-41.958 -63.223)" fill="#fff"/>
  <path id="Path_1" data-name="Path 1" d="M126.9,117.757V105.388s-4.282-.666-4.044-4.853,4.52-4.472,4.52-4.472-1.808-8.183,4.52-8.373,4.234,8.659,4.234,8.659,4.853.381,4.9,4.9-4.9,3.949-4.9,3.949l.19,12.921,11.18-6.4s-.666-5.281,2.521-6.613,5.8,1.855,5.8,1.855,4.948-6.423,9.372-.571-4.948,8.849-4.948,8.849,2.331,3.473-1.047,5.9-7.136-.9-7.136-.9l-11.37,5.9,11.132,6.518s2.426-4.377,6.613-2.331,1.522,6.756,1.522,6.756,7.8,2.521,4.9,7.8-9.42.333-9.42.333-3.187,3.52-6.28,1.094a4.972,4.972,0,0,1-1.427-5.947l-11.608-6.327.19,13.273a4.332,4.332,0,0,1,3.854,4.424c-.048,4-4.044,4.091-4.044,4.091s1.808,8.23-4.329,8.278-4.187-8.278-4.187-8.278-4.615.428-4.662-4.091,4.472-4.424,4.472-4.424V134.028l-11.941,6.8s2.093,4.139-1.284,5.8-5.994-1.855-5.994-1.855-6.756,5.186-9.705-.618,4.853-6.756,4.853-6.756-1.808-4.329,1.808-6.423,6.613,1.427,6.613,1.427l10.752-6.28-11.037-5.947a4.676,4.676,0,0,1-6.28.809C101.4,118.661,103.78,115,103.78,115s-7.993-1.76-5.043-7.707,9.658.285,9.658.285,2.617-4.615,6.185-2.188S116.2,112,116.2,112Z" transform="translate(-45.954 -39.65)" fill="#fff" stroke="rgba(112,112,112,0)" stroke-linejoin="round" stroke-width="2"/>
  <path id="Path_2" data-name="Path 2" d="M119.379,142.918h7.761v-5.1Z" transform="matrix(1, 0.017, -0.017, 1, -44.97, -42.697)" fill="#fff"/>
  <path id="Path_3" data-name="Path 3" d="M0,0H7.326V4.864Z" transform="matrix(-1, 0.017, -0.017, -1, 99.738, 102.294)" fill="#fff"/>
</svg>
